<?xml version="1.0" encoding="UTF-8"?>
<svg version="1.1" xmlns="http://www.w3.org/2000/svg" width="512" height="512">
<path d="M0 0 C168.96 0 337.92 0 512 0 C512 168.96 512 337.92 512 512 C343.04 512 174.08 512 0 512 C0 343.04 0 174.08 0 0 Z " fill="#FEFEFE" transform="translate(0,0)"/>
<path d="M0 0 C1.53412966 0.00560526 3.06826475 0.00987096 4.60240173 0.01286316 C8.61212363 0.02423886 12.62151206 0.05364192 16.63110352 0.0869751 C21.45699931 0.12327354 26.28300751 0.13687186 31.10900116 0.15433502 C38.41534626 0.18328488 45.72096175 0.24082169 53.02734375 0.29296875 C53.02734375 17.78296875 53.02734375 35.27296875 53.02734375 53.29296875 C40.15734375 53.29296875 27.28734375 53.29296875 14.02734375 53.29296875 C14.02734375 111.04296875 14.02734375 168.79296875 14.02734375 228.29296875 C78.70734375 228.29296875 143.38734375 228.29296875 210.02734375 228.29296875 C210.02734375 170.54296875 210.02734375 112.79296875 210.02734375 53.29296875 C197.15734375 53.29296875 184.28734375 53.29296875 171.02734375 53.29296875 C171.02734375 35.80296875 171.02734375 18.31296875 171.02734375 0.29296875 C187.84630446 0.13253351 187.84630446 0.13253351 195.06640625 0.09765625 C199.97543837 0.07382962 204.88416946 0.04577363 209.79296875 -0.00878906 C213.75468347 -0.05254445 217.71607496 -0.0762303 221.67801285 -0.08654022 C223.18256842 -0.09387877 224.68710815 -0.10820808 226.19152451 -0.12995148 C236.55818224 -0.27369705 246.31771152 0.27033015 254.40234375 7.54296875 C255.00820313 8.06375 255.6140625 8.58453125 256.23828125 9.12109375 C261.4605602 15.46080357 262.61450485 21.36071999 262.54200745 29.41966248 C262.54895297 30.41245101 262.5558985 31.40523954 262.5630545 32.42811257 C262.58128852 35.7406365 262.57106988 39.05244134 262.56079102 42.36499023 C262.56785127 44.74563125 262.57659673 47.12626778 262.5868988 49.50689697 C262.60705612 55.29347738 262.60842333 61.07983313 262.60027326 66.86643868 C262.59396268 71.57156762 262.59511995 76.2766393 262.60154533 80.98176765 C262.60244699 81.65249801 262.60334864 82.32322837 262.60427762 83.01428388 C262.6061289 84.37705105 262.60799146 85.73981819 262.60986518 87.10258532 C262.62642833 99.86983509 262.61773719 112.63697421 262.6008796 125.40421731 C262.58618462 137.07303904 262.60081068 148.74160323 262.62964977 160.4103918 C262.65907422 172.40579824 262.67000715 184.40108594 262.66046757 196.39652687 C262.65944506 197.75446925 262.65845045 199.11241166 262.65748405 200.47035408 C262.65700766 201.13840656 262.65653127 201.80645905 262.65604045 202.49475555 C262.65388029 207.19098671 262.66365908 211.88710495 262.67825508 216.58331108 C262.69661631 222.91097405 262.69064721 229.23815861 262.66605568 235.5657959 C262.66104941 237.88571497 262.66453268 240.20567052 262.67720413 242.52556038 C262.69315594 245.69735236 262.67816212 248.86757303 262.65553284 252.03929138 C262.66736857 252.95311929 262.67920429 253.86694719 262.69139868 254.80846685 C262.58640844 262.07248953 260.29824313 267.54767635 255.50562769 273.03538603 C248.0223955 280.08869786 239.10532697 281.89318093 229.12864685 281.80090332 C228.07697974 281.80714328 227.02531263 281.81338325 225.94177681 281.8198123 C222.44199021 281.83567953 218.94290615 281.82316218 215.44311523 281.81054688 C212.92425126 281.81597072 210.40539046 281.82309484 207.88653564 281.83178711 C201.77000697 281.8481031 195.65373552 281.84575676 189.5372036 281.83413655 C184.56420012 281.825082 179.59125163 281.82388693 174.61824226 281.82823181 C173.90892783 281.82884474 173.1996134 281.82945768 172.46880459 281.83008918 C171.02760249 281.83136815 169.58640041 281.83266501 168.14519835 281.83397955 C154.65019787 281.84536935 141.1553063 281.8322964 127.66032369 281.81077808 C116.09323747 281.79290465 104.52631184 281.79601627 92.95922852 281.81445312 C79.50909425 281.83588151 66.05905528 281.84427493 52.60890633 281.83200407 C51.17348072 281.83072994 49.7380551 281.82947246 48.30262947 281.82823181 C47.59646942 281.82761471 46.89030937 281.82699761 46.16275052 281.82636181 C41.19801492 281.82291509 36.23334001 281.82872249 31.26861382 281.83815002 C24.58147152 281.85056983 17.89467854 281.8416694 11.20755005 281.818573 C8.75540227 281.81328997 6.30322895 281.81479267 3.85109138 281.82362366 C0.50007063 281.83457804 -2.84998357 281.82081544 -6.20094299 281.80090332 C-7.65134841 281.81428765 -7.65134841 281.81428765 -9.13105494 281.82794237 C-17.20197555 281.73512091 -24.15129777 279.4544242 -30.28515625 274.04296875 C-30.90003906 273.5221875 -31.51492187 273.00140625 -32.1484375 272.46484375 C-37.43765663 266.16761497 -38.55898447 260.21373917 -38.48059082 252.1595459 C-38.48683078 251.1660518 -38.49307075 250.17255771 -38.4994998 249.14895773 C-38.51540027 245.83408672 -38.50283666 242.51995404 -38.49023438 239.20507812 C-38.49565678 236.82281568 -38.5027801 234.44055659 -38.51147461 232.05830383 C-38.52780571 226.26803963 -38.52543604 220.47800836 -38.51382405 214.68773711 C-38.50477577 209.98021789 -38.50357173 205.27275675 -38.50791931 200.56523132 C-38.50853224 199.89421224 -38.50914518 199.22319317 -38.50977668 198.53184018 C-38.51105563 197.16850728 -38.51235249 195.8051744 -38.51366705 194.44184154 C-38.52506231 181.66984763 -38.51197574 168.89796872 -38.49046558 156.12599367 C-38.47259552 145.17654889 -38.47569992 134.22727375 -38.49414062 123.27783203 C-38.51556602 110.55030034 -38.52396378 97.82286934 -38.51169157 85.09532213 C-38.51041743 83.73711683 -38.50915994 82.37891151 -38.50791931 81.02070618 C-38.50730221 80.35251298 -38.50668511 79.68431978 -38.50604931 78.99587831 C-38.5026014 74.29619299 -38.50841265 69.59657175 -38.51783752 64.89689636 C-38.52939956 58.566824 -38.52136325 52.23707174 -38.4982605 45.90703392 C-38.49297538 43.58508523 -38.49448376 41.26310957 -38.50331116 38.94117165 C-38.5142575 35.76921568 -38.50051291 32.59828257 -38.48059082 29.4263916 C-38.48951371 28.50965086 -38.49843659 27.59291011 -38.50762987 26.64838934 C-38.42075901 19.50733262 -36.54174799 14.34345818 -31.9296875 8.8671875 C-31.22199219 8.24457031 -30.51429687 7.62195313 -29.78515625 6.98046875 C-29.09035156 6.34496094 -28.39554688 5.70945313 -27.6796875 5.0546875 C-19.11172725 -0.52128663 -9.87123552 -0.10661681 0 0 Z " fill="#575755" transform="translate(143.97265625,209.70703125)"/>
<path d="M0 0 C3.55910193 1.51661707 5.85500999 3.5991158 8.58543396 6.31800842 C9.50084961 7.2248941 10.41626526 8.13177979 11.35942078 9.06614685 C12.3665939 10.07401898 13.37365496 11.0820031 14.38061523 12.09008789 C15.44657212 13.15005911 16.5129379 14.20961925 17.5796814 15.26879883 C20.47508541 18.14653431 23.36396919 21.03073073 26.25118899 23.91667485 C28.05722623 25.72128981 29.8646804 27.52447279 31.67265511 29.32714653 C37.98582015 35.62180472 44.29379233 41.92161349 50.59692383 48.22631836 C56.46240622 54.0930006 62.33893134 59.94845569 68.22079891 65.79870611 C73.27692263 70.82862243 78.32524793 75.86627712 83.36764675 80.9099521 C86.37623557 83.91904946 89.38780844 86.92499904 92.40725517 89.92320442 C95.25041415 92.74690724 98.08368589 95.58017872 100.90987778 98.42086029 C101.94438911 99.45745205 102.98227437 100.49069021 104.02388573 101.52014732 C111.7611852 109.17303522 119.08466365 116.8145978 119.1875 128.25 C119.04031929 137.24274156 116.39910009 144.37909654 110.140625 150.953125 C102.93252899 157.60245388 95.27953722 160.46085173 85.453125 160.265625 C69.68274876 158.55800464 57.98104879 142.08651214 47.5 131.5 C44.80494704 128.77838856 42.10660555 126.06009909 39.40625 123.34375 C38.79172974 122.7209314 38.17720947 122.09811279 37.54406738 121.4564209 C34.56375383 118.346941 34.56375383 118.346941 31 116 C31.00553076 117.08668346 31.01106152 118.17336693 31.01675987 119.29298019 C31.15008019 145.75974903 31.24861276 172.2264742 31.31087303 198.69350815 C31.34178355 211.49289652 31.38391088 224.29206279 31.45263672 237.09130859 C31.51252407 248.24984681 31.55116951 259.40822414 31.56453097 270.56691861 C31.57233881 276.47298432 31.59063125 282.37858983 31.63438034 288.28450775 C31.67526844 293.84957578 31.68763616 299.41399638 31.67864609 304.97920036 C31.68028948 307.01569328 31.69212724 309.05220905 31.71523285 311.08857155 C31.84879703 323.47303432 31.59714514 333.85367976 22.71164513 343.4788475 C15.65965039 350.31594112 8.85635578 352.58641461 -0.93579102 352.47607422 C-10.13947743 352.13884962 -15.60125472 348.76044191 -21.9375 342.3125 C-31.00102896 332.52520466 -29.44325363 318.90240686 -29.43237305 306.49560547 C-29.44139844 304.41533326 -29.45172756 302.33506636 -29.46325684 300.25480652 C-29.4907615 294.62953086 -29.50010251 289.00435629 -29.50611091 283.37902212 C-29.51551156 277.49199028 -29.54171635 271.60503344 -29.56611633 265.7180481 C-29.60973844 254.58007433 -29.63831178 243.44211516 -29.66143972 232.30408204 C-29.68851435 219.61964672 -29.7324245 206.93528702 -29.77772844 194.25090575 C-29.87051332 168.16731153 -29.94222227 142.0836936 -30 116 C-30.45386078 116.46496384 -30.90772156 116.92992767 -31.37533569 117.40898132 C-36.13009303 122.27492827 -40.90281292 127.12272814 -45.68603516 131.96069336 C-47.46538197 133.76508091 -49.2402027 135.57394401 -51.01025391 137.38745117 C-53.5651735 140.00347604 -56.13629885 142.60261593 -58.7109375 145.19921875 C-59.49052826 146.00461594 -60.27011902 146.81001312 -61.07333374 147.63981628 C-67.79137961 154.3612003 -75.79588602 160.06277878 -85.625 160.25 C-94.24344123 160.1494934 -101.48302449 157.26933431 -107.78125 151.31640625 C-113.77287119 145.00743225 -117.11684058 138.26322681 -117.5 129.5 C-116.83685661 114.33326892 -105.55489935 105.40291943 -95.47485352 95.36132812 C-94.42928424 94.3160415 -93.38393626 93.27053348 -92.33879089 92.224823 C-89.52334716 89.40909434 -86.70484818 86.59644256 -83.88575864 83.7843647 C-80.9317955 80.8366861 -77.98069593 77.88614334 -75.02928162 74.93591309 C-69.44996499 69.35969481 -63.86810594 63.78602886 -58.28531164 58.2132926 C-51.92536277 51.86455149 -45.56827977 45.51294403 -39.21142685 39.16110325 C-26.14412046 26.10422735 -13.07324877 13.05092593 0 0 Z " fill="#575755" transform="translate(255,22)"/>
<path d="M0 0 C0 1.98 0 3.96 0 6 C-0.66 5.34 -1.32 4.68 -2 4 C-2.515625 4.70125 -3.03125 5.4025 -3.5625 6.125 C-5.91115515 8.89520863 -8.32136261 11.08844464 -11.12109375 13.375 C-13.537423 15.46479827 -15.75721727 17.72844087 -18 20 C-19.40157071 21.40311637 -20.80399164 22.8053837 -22.20703125 24.20703125 C-22.95791016 24.95791016 -23.70878906 25.70878906 -24.48242188 26.48242188 C-27.98828125 29.98828125 -31.49414062 33.49414062 -35 37 C-35.66 36.67 -36.32 36.34 -37 36 C-31.89483498 30.86957465 -26.78582802 25.74299922 -21.67407227 20.61914062 C-19.93391645 18.87394182 -18.19465726 17.12784853 -16.45629883 15.38085938 C-13.96407941 12.87657281 -11.46870129 10.3754728 -8.97265625 7.875 C-8.19036148 7.08754395 -7.40806671 6.30008789 -6.60206604 5.48876953 C-5.8813945 4.76802246 -5.16072296 4.04727539 -4.41821289 3.3046875 C-3.78089737 2.66515137 -3.14358185 2.02561523 -2.48695374 1.36669922 C-1 0 -1 0 0 0 Z " fill="#E8E8E7" transform="translate(226,137)"/>
<path d="M0 0 C3.16115776 1.36983503 3.9927092 1.9890638 6 5 C4.68 4.67 3.36 4.34 2 4 C2 3.34 2 2.68 2 2 C-2.66906555 5.81438599 -2.66906555 5.81438599 -7 10 C-7 7 -7 7 -5.46875 5.17578125 C-4.8190625 4.56089844 -4.169375 3.94601563 -3.5 3.3125 C-2.8503125 2.68988281 -2.200625 2.06726563 -1.53125 1.42578125 C-0.77328125 0.72001953 -0.77328125 0.72001953 0 0 Z " fill="#5F5F5F" transform="translate(255,22)"/>
<path d="M0 0 C1 3 1 3 0.0625 5.1875 C-0.4634375 6.0846875 -0.4634375 6.0846875 -1 7 C-2.32 5.35 -3.64 3.7 -5 2 C-3.35 1.34 -1.7 0.68 0 0 Z " fill="#5D5D5D" transform="translate(318,161)"/>
<path d="M0 0 C0.66 1.32 1.32 2.64 2 4 C0.68 4.99 -0.64 5.98 -2 7 C-2.6875 5.1875 -2.6875 5.1875 -3 3 C-1.5625 1.25 -1.5625 1.25 0 0 Z " fill="#5C5C5C" transform="translate(212,145)"/>
<path d="M0 0 C1.98 1.65 3.96 3.3 6 5 C3 6 3 6 0.8125 5.0625 C0.214375 4.711875 -0.38375 4.36125 -1 4 C-0.67 2.68 -0.34 1.36 0 0 Z " fill="#646463" transform="translate(396,216)"/>
<path d="M0 0 C2.475 0.495 2.475 0.495 5 1 C5.33 2.32 5.66 3.64 6 5 C3 5 3 5 1.3125 3.625 C0 2 0 2 0 0 Z " fill="#60605E" transform="translate(321,170)"/>
<path d="M0 0 C0 4.38968456 -2.12805101 5.76905739 -5 9 C-5.66 8.34 -6.32 7.68 -7 7 C-4.69 4.69 -2.38 2.38 0 0 Z " fill="#606060" transform="translate(158,119)"/>
<path d="M0 0 C0 4.38968456 -2.12805101 5.76905739 -5 9 C-5.66 8.34 -6.32 7.68 -7 7 C-4.69 4.69 -2.38 2.38 0 0 Z " fill="#60605E" transform="translate(166,111)"/>
<path d="M0 0 C0 4.38968456 -2.12805101 5.76905739 -5 9 C-5.66 8.34 -6.32 7.68 -7 7 C-4.69 4.69 -2.38 2.38 0 0 Z " fill="#606060" transform="translate(174,103)"/>
<path d="M0 0 C0 4.38968456 -2.12805101 5.76905739 -5 9 C-5.66 8.34 -6.32 7.68 -7 7 C-4.69 4.69 -2.38 2.38 0 0 Z " fill="#60605E" transform="translate(182,95)"/>
<path d="M0 0 C0 4.38968456 -2.12805101 5.76905739 -5 9 C-5.66 8.34 -6.32 7.68 -7 7 C-4.69 4.69 -2.38 2.38 0 0 Z " fill="#606060" transform="translate(190,87)"/>
<path d="M0 0 C0 4.38968456 -2.12805101 5.76905739 -5 9 C-5.66 8.34 -6.32 7.68 -7 7 C-4.69 4.69 -2.38 2.38 0 0 Z " fill="#60605E" transform="translate(198,79)"/>
<path d="M0 0 C0 4.38968456 -2.12805101 5.76905739 -5 9 C-5.66 8.34 -6.32 7.68 -7 7 C-4.69 4.69 -2.38 2.38 0 0 Z " fill="#606060" transform="translate(206,71)"/>
<path d="M0 0 C0 4.38968456 -2.12805101 5.76905739 -5 9 C-5.66 8.34 -6.32 7.68 -7 7 C-4.69 4.69 -2.38 2.38 0 0 Z " fill="#60605E" transform="translate(214,63)"/>
<path d="M0 0 C0 4.38968456 -2.12805101 5.76905739 -5 9 C-5.66 8.34 -6.32 7.68 -7 7 C-4.69 4.69 -2.38 2.38 0 0 Z " fill="#606060" transform="translate(222,55)"/>
<path d="M0 0 C0 4.38968456 -2.12805101 5.76905739 -5 9 C-5.66 8.34 -6.32 7.68 -7 7 C-4.69 4.69 -2.38 2.38 0 0 Z " fill="#60605E" transform="translate(230,47)"/>
<path d="M0 0 C0 4.38968456 -2.12805101 5.76905739 -5 9 C-5.66 8.34 -6.32 7.68 -7 7 C-4.69 4.69 -2.38 2.38 0 0 Z " fill="#606060" transform="translate(238,39)"/>
<path d="M0 0 C0 4.38968456 -2.12805101 5.76905739 -5 9 C-5.66 8.34 -6.32 7.68 -7 7 C-4.69 4.69 -2.38 2.38 0 0 Z " fill="#60605E" transform="translate(246,31)"/>
</svg>